<?xml version="1.0" standalone="no"?>
<!DOCTYPE svg PUBLIC "-//W3C//DTD SVG 20010904//EN"
 "http://www.w3.org/TR/2001/REC-SVG-20010904/DTD/svg10.dtd">
<svg version="1.0" xmlns="http://www.w3.org/2000/svg"
 width="64.000000pt" height="64.000000pt" viewBox="0 0 64.000000 64.000000"
 preserveAspectRatio="xMidYMid meet">

<g transform="translate(0.000000,64.000000) scale(0.100000,-0.100000)"
fill="#000000" stroke="none">
<path d="M64 576 c-16 -12 -20 -29 -23 -100 -3 -80 -2 -86 23 -110 24 -24 31
-26 126 -26 l100 0 0 109 c0 140 -1 141 -119 141 -59 0 -93 -4 -107 -14z m186
-111 l0 -85 -73 0 c-43 0 -78 5 -85 12 -13 13 -17 140 -5 151 3 4 42 7 85 7
l78 0 0 -85z"/>
<path d="M366 574 c-13 -12 -16 -39 -16 -125 l0 -109 100 0 c95 0 102 2 126
26 25 24 26 30 23 110 -5 109 -11 114 -130 114 -66 0 -91 -4 -103 -16z m192
-89 c5 -104 4 -105 -88 -105 l-80 0 0 85 0 86 83 -3 82 -3 3 -60z"/>
<path d="M64 274 c-24 -24 -26 -30 -23 -108 5 -113 9 -116 125 -116 124 0 124
0 124 141 l0 109 -100 0 c-95 0 -102 -2 -126 -26z m186 -99 l0 -86 -82 3 -83
3 -3 60 c-5 104 -4 105 88 105 l80 0 0 -85z"/>
<path d="M350 191 c0 -140 1 -141 119 -141 119 0 125 5 130 114 3 80 2 86 -23
110 -24 24 -31 26 -126 26 l-100 0 0 -109z m199 55 c7 -9 11 -41 9 -83 l-3
-68 -82 -3 -83 -3 0 86 0 85 74 0 c51 0 77 -4 85 -14z"/>
</g>
</svg>
